<svg version="1.1" id="Layer_1" xmlns="http://www.w3.org/2000/svg" xmlns:xlink="http://www.w3.org/1999/xlink" x="0px" y="0px"
	 viewBox="0 0 96 96" style="enable-background:new 0 0 96 96;" xml:space="preserve">
<style type="text/css">
	.st0{fill:#333333;}
</style>
<g id="XMLID_2_">
	<path id="XMLID_7_" class="st0" d="M29.3,32.6c0,0.6-0.2,1.1-0.7,1.5c-0.4,0.4-1,0.7-1.5,0.7c-0.6,0-1.1-0.2-1.6-0.7
		s-0.6-1-0.6-1.5c0-0.6,0.2-1.1,0.6-1.6s0.9-0.6,1.6-0.6c0.6,0,1.1,0.2,1.5,0.6C29.1,31.5,29.3,32,29.3,32.6z M34.8,50.2v-22
		c0-0.6-0.2-1.1-0.7-1.5c-0.4-0.4-1-0.7-1.5-0.7h-9.9c-0.6,0-1.1,0.2-1.5,0.7c-0.4,0.4-0.7,1-0.7,1.5v22c0,0.6,0.2,1.1,0.7,1.5
		c0.4,0.4,1,0.7,1.5,0.7h9.9c0.6,0,1.1-0.2,1.5-0.7C34.6,51.3,34.8,50.8,34.8,50.2z M73.6,45.1c1.3,1.4,1.9,3.1,1.9,5.1
		c0,1.8-0.7,3.3-2,4.6c-1.3,1.3-2.8,2-4.6,2h-9.5c0.1,0.3,0.2,0.6,0.3,0.8c0.1,0.2,0.2,0.5,0.4,0.8c0.2,0.3,0.3,0.5,0.3,0.6
		c0.4,0.8,0.7,1.5,0.9,2c0.2,0.5,0.4,1.1,0.7,2c0.2,0.9,0.3,1.8,0.3,2.6c0,0.6,0,1,0,1.3s-0.1,0.9-0.2,1.5c-0.1,0.7-0.2,1.3-0.4,1.7
		c-0.2,0.5-0.4,1-0.8,1.5c-0.4,0.6-0.8,1-1.4,1.4c-0.5,0.4-1.2,0.7-2.1,0.9c-0.8,0.2-1.8,0.4-2.8,0.4c-0.6,0-1.1-0.2-1.5-0.7
		c-0.5-0.5-0.8-1-1.2-1.7c-0.3-0.7-0.5-1.3-0.7-1.8s-0.3-1.2-0.4-2.1c-0.2-1-0.4-1.7-0.5-2.1s-0.3-1-0.6-1.7s-0.7-1.2-1.1-1.6
		c-0.8-0.8-1.9-2.1-3.5-4.1c-1.1-1.5-2.3-2.9-3.5-4.2c-1.2-1.3-2.1-2-2.6-2c-0.6,0-1.1-0.3-1.5-0.7c-0.4-0.4-0.6-0.9-0.6-1.5v-22
		c0-0.6,0.2-1.1,0.7-1.5s1-0.6,1.5-0.7c0.8,0,2.6-0.5,5.4-1.5c1.8-0.6,3.1-1,4.1-1.4c1-0.3,2.4-0.6,4.2-1c1.8-0.4,3.4-0.5,5-0.5h4.4
		c3,0,5.3,0.9,6.8,2.7c1.3,1.6,1.9,3.7,1.7,6.2c0.9,0.8,1.5,1.9,1.9,3.2c0.4,1.4,0.4,2.7,0,4c1.1,1.4,1.5,3,1.5,4.7
		C74.1,43.2,74,44.1,73.6,45.1z"/>
</g>
</svg>
